<svg width="240" height="56" viewBox="0 0 240 56" fill="none" xmlns="http://www.w3.org/2000/svg">
<path d="M96.9043 38V16.6719H104.375C106.963 16.6719 108.926 17.1699 110.264 18.166C111.602 19.1523 112.271 20.6025 112.271 22.5166C112.271 23.5615 112.002 24.4844 111.465 25.2852C110.928 26.0762 110.181 26.6572 109.224 27.0283C110.317 27.3018 111.177 27.8535 111.802 28.6836C112.437 29.5137 112.754 30.5293 112.754 31.7305C112.754 33.7812 112.1 35.334 110.791 36.3887C109.482 37.4434 107.617 37.9805 105.195 38H96.9043ZM101.299 28.7129V34.4697H105.063C106.099 34.4697 106.904 34.2256 107.48 33.7373C108.066 33.2393 108.359 32.5557 108.359 31.6865C108.359 29.7334 107.349 28.7422 105.327 28.7129H101.299ZM101.299 25.6074H104.551C106.768 25.5684 107.876 24.6846 107.876 22.9561C107.876 21.9893 107.593 21.2959 107.026 20.876C106.47 20.4463 105.586 20.2314 104.375 20.2314H101.299V25.6074ZM123.081 38.293C120.757 38.293 118.862 37.5801 117.397 36.1543C115.942 34.7285 115.215 32.8291 115.215 30.4561V30.0459C115.215 28.4541 115.522 27.0332 116.138 25.7832C116.753 24.5234 117.622 23.5566 118.745 22.8828C119.878 22.1992 121.167 21.8574 122.612 21.8574C124.78 21.8574 126.484 22.541 127.725 23.9082C128.975 25.2754 129.6 27.2139 129.6 29.7236V31.4521H119.507C119.644 32.4873 120.054 33.3174 120.737 33.9424C121.431 34.5674 122.305 34.8799 123.359 34.8799C124.99 34.8799 126.265 34.2891 127.183 33.1074L129.263 35.4365C128.628 36.335 127.769 37.0381 126.685 37.5459C125.601 38.0439 124.399 38.293 123.081 38.293ZM122.598 25.2852C121.758 25.2852 121.074 25.5684 120.547 26.1348C120.029 26.7012 119.697 27.5117 119.551 28.5664H125.439V28.2295C125.42 27.292 125.166 26.5693 124.678 26.0615C124.189 25.5439 123.496 25.2852 122.598 25.2852ZM136.689 34.4697H146.021V38H132.295V16.6719H136.689V34.4697ZM157.461 38C157.266 37.6191 157.124 37.1455 157.036 36.5791C156.011 37.7217 154.678 38.293 153.037 38.293C151.484 38.293 150.195 37.8438 149.17 36.9453C148.154 36.0469 147.646 34.9141 147.646 33.5469C147.646 31.8672 148.267 30.5781 149.507 29.6797C150.757 28.7812 152.559 28.3271 154.912 28.3174H156.86V27.4092C156.86 26.6768 156.67 26.0908 156.289 25.6514C155.918 25.2119 155.327 24.9922 154.517 24.9922C153.804 24.9922 153.242 25.1631 152.832 25.5049C152.432 25.8467 152.231 26.3154 152.231 26.9111H147.998C147.998 25.9932 148.281 25.1436 148.848 24.3623C149.414 23.5811 150.215 22.9707 151.25 22.5312C152.285 22.082 153.447 21.8574 154.736 21.8574C156.689 21.8574 158.237 22.3506 159.38 23.3369C160.532 24.3135 161.108 25.6904 161.108 27.4678V34.3379C161.118 35.8418 161.328 36.9795 161.738 37.751V38H157.461ZM153.96 35.0557C154.585 35.0557 155.161 34.9189 155.688 34.6455C156.216 34.3623 156.606 33.9863 156.86 33.5176V30.793H155.278C153.159 30.793 152.031 31.5254 151.895 32.9902L151.88 33.2393C151.88 33.7666 152.065 34.2012 152.437 34.543C152.808 34.8848 153.315 35.0557 153.96 35.0557ZM173.853 36.3887C172.808 37.6582 171.362 38.293 169.517 38.293C167.817 38.293 166.519 37.8047 165.62 36.8281C164.731 35.8516 164.277 34.4209 164.258 32.5361V22.1504H168.491V32.3896C168.491 34.04 169.243 34.8652 170.747 34.8652C172.183 34.8652 173.169 34.3672 173.706 33.3711V22.1504H177.954V38H173.97L173.853 36.3887ZM185.044 22.1504L185.176 23.9814C186.309 22.5654 187.827 21.8574 189.731 21.8574C191.411 21.8574 192.661 22.3506 193.481 23.3369C194.302 24.3232 194.722 25.7979 194.741 27.7607V38H190.508V27.8633C190.508 26.9648 190.312 26.3154 189.922 25.915C189.531 25.5049 188.882 25.2998 187.974 25.2998C186.782 25.2998 185.889 25.8076 185.293 26.8232V38H181.06V22.1504H185.044ZM197.305 29.958C197.305 27.4873 197.856 25.5195 198.96 24.0547C200.073 22.5898 201.592 21.8574 203.516 21.8574C205.059 21.8574 206.333 22.4336 207.339 23.5859V15.5H211.587V38H207.764L207.559 36.3154C206.504 37.6338 205.146 38.293 203.486 38.293C201.621 38.293 200.122 37.5605 198.989 36.0957C197.866 34.6211 197.305 32.5752 197.305 29.958ZM201.538 30.2656C201.538 31.75 201.797 32.8877 202.314 33.6787C202.832 34.4697 203.584 34.8652 204.57 34.8652C205.879 34.8652 206.802 34.3135 207.339 33.21V26.9551C206.812 25.8516 205.898 25.2998 204.6 25.2998C202.559 25.2998 201.538 26.9551 201.538 30.2656ZM223.774 26.1201C223.198 26.042 222.69 26.0029 222.251 26.0029C220.649 26.0029 219.6 26.5449 219.102 27.6289V38H214.868V22.1504H218.867L218.984 24.04C219.834 22.585 221.011 21.8574 222.515 21.8574C222.983 21.8574 223.423 21.9209 223.833 22.0479L223.774 26.1201ZM232.007 32.0088L234.937 22.1504H239.478L233.105 40.4609L232.754 41.2959C231.807 43.3662 230.244 44.4014 228.066 44.4014C227.451 44.4014 226.826 44.3086 226.191 44.123V40.915L226.836 40.9297C227.637 40.9297 228.232 40.8076 228.623 40.5635C229.023 40.3193 229.336 39.9141 229.561 39.3477L230.059 38.0439L224.507 22.1504H229.062L232.007 32.0088Z" fill="white"/>
<circle cx="28" cy="28" r="26" fill="#0099EE" stroke="white" stroke-width="4"/>
<circle cx="70" cy="10" r="8" fill="#F36868" stroke="white" stroke-width="4"/>
</svg>
